{"title":"Step Up - 2 The Streets  DVD Rip By Haunting Summer","uid":6094077,"size":735289344,"categoryP":"video","categoryS":"movies","magnet":"?xt=urn:btih:4e1f29aa2ae9bff77d7537c6d98230d8ecd60719&amp;dn=Step+Up+-+2+The+Streets++DVD+Rip+By+Haunting+Summer&amp;tr=udp%3A%2F%2Ftracker.openbittorrent.com%3A80&amp;tr=udp%3A%2F%2Fopen.demonii.com%3A1337&amp;tr=udp%3A%2F%2Ftracker.coppersurfer.tk%3A6969&amp;tr=udp%3A%2F%2Fexodus.desync.com%3A6969","seeders":0,"leechers":1,"uploader":"HaUnTiNg.SuMMeR","files":-1,"time":1294689397,"description":"++++++++++++++++++++++++++++---- STEP UP - 2  THE STREETS +++++++++++++++----------\n\n Directed by  Jon Chu   (as Jon M. Chu) \n  \n---++++++++++++++++++++++++++++++ CAST --------------------++++++++++++++++++++++++\n\n Robert Hoffman  ...  Chase \n\n Adam G. Sevani  ...  Moose \n\n Cassie Ventura  ...  Sophie \n\n Danielle Polanco ...  Missy \n\n Christopher Scott ...  Hair \n\n Mari Koda ...  Jenny Kido \n\n Janelle Cambridge ...  Fly \n\n Luis Rosado ...  Monster \n\n Harry Shum Jr. ...  Cable\n \n LaJon Dantzler ...  Smiles \n\n Telisha Shaw ...  Felicia\n\n-+++++++++++++++++++++++++++----- Storyline-------------------+++++++++++++++++++++\n\nRomantic sparks occur between two dance students from different backgrounds at the Maryland School of the Arts.\n\n+++++++++++++++++++++++++++++++++++++++++++++++++++++++++++++++++++++++++++++++++++ \n\nBox Office\n\nBudget:$23,000,000 (estimated) \nOpening Weekend:$22,125,429 (USA) (17 February 2008) (2470 Screens) \nGross:$58,017,783 (USA) (22 May 2008) \n \nTechnical Specs\nRuntime:98 min \nSound Mix:SDDS  | Dolby Digital  | DTS \nColor:Color \n+++++++++++++++++++++++++++++++++++++++++++++++++++++++++++++++++++++++++++++++++++\n\nFormat                           : AVI\nFormat/Info                      : Audio Video Interleave\nFile size                        : 701 MiB\nDuration                         : 1h 37mn\nOverall bit rate                 : 1 002 Kbps\nWriting application              : VirtualDubMod 1.5.10.1 (build 2366/release)\nWriting library                  : VirtualDubMod build 2366/release\n\nVideo\nID                               : 0\nFormat                           : MPEG-4 Visual\nFormat profile                   : Advanced Simple@L5\nFormat settings, BVOP            : Yes\nFormat settings, QPel            : No\nFormat settings, GMC             : No warppoints\nFormat settings, Matrix          : Default (H.263)\nCodec ID                         : DX50\nCodec ID/Hint                    : DivX 5\nDuration                         : 1h 37mn\nBit rate                         : 865 Kbps\nWidth                            : 656 pixels\nHeight                           : 346 pixels\nDisplay aspect ratio             : 1.896\nFrame rate                       : 23.976 fps\nColor space                      : YUV\nChroma subsampling               : 4:2:0\nBit depth                        : 8 bits\nScan type                        : Progressive\nBits/(Pixel*Frame)               : 0.159\nStream size                      : 605 MiB (86%)\nWriting library                  : XviD 1.0.3 (UTC 2004-12-20)\n\nAudio\nID                               : 1\nFormat                           : MPEG Audio\nFormat version                   : Version 1\nFormat profile                   : Layer 3\nCodec ID                         : 55\nCodec ID/Hint                    : MP3\nDuration                         : 1h 37mn\nBit rate mode                    : Constant\nBit rate                         : 128 Kbps\nChannel(s)                       : 2 channels\nSampling rate                    : 48.0 KHz\nVideo delay                      : 2s 352ms\nStream size                      : 89.6 MiB (13%)\nAlignment                        : Split accross interleaves\nInterleave, duration             : 42 ms (1.00 video frame)\nInterleave, preload duration     : 504 ms\n\n\n++++++++++++++++++++++++ SCREENSHOT------------++++++++++++++++++++++++++++++++++++","torrent":{"xt":"urn:btih:4e1f29aa2ae9bff77d7537c6d98230d8ecd60719","amp;dn":"Step+Up+-+2+The+Streets++DVD+Rip+By+Haunting+Summer","amp;tr":["udp%3A%2F%2Ftracker.openbittorrent.com%3A80","udp%3A%2F%2Fopen.demonii.com%3A1337","udp%3A%2F%2Ftracker.coppersurfer.tk%3A6969","udp%3A%2F%2Fexodus.desync.com%3A6969"],"infoHash":"4e1f29aa2ae9bff77d7537c6d98230d8ecd60719","infoHashBuffer":{"type":"Buffer","data":[78,31,41,170,42,233,191,247,125,117,55,198,217,130,48,216,236,214,7,25]},"announce":[],"urlList":[]}}